# xmcd
#
# Track frame offsets:
#	150
#	10335
#	20589
#	30287
#	39847
#	50532
#	66981
#	81679
#	100150
#	114180
#	125848
#	139554
#	157104
#	169937
#	182689
#	198017
#	209861
#	223959
#	241269
#	256511
#	269650
#	282903
#	298648
#	317501
#
# Disc length: 4371 seconds
#
# Revision: 2
# Processed by: cddbd v1.5.2PL0 Copyright (c) Steve Scherf et al.
# Submitted via: audiograbber 1.83.01
#
DISCID=65111118
DTITLE=K.T.O. - Je nam pade! - CD2
DYEAR=2013
DGENRE=Country
TTITLE0=Tuhle naturu mam
TTITLE1=Tecka
TTITLE2=Suziana
TTITLE3=Na osade hrali
TTITLE4=Namornik ma svou holku rad
TTITLE5=Ohynek hori
TTITLE6=Bojkovske udoli
TTITLE7=Nad vodou svita
TTITLE8=Mavam rekam
TTITLE9=Co delas, to delej rad
TTITLE10=Tisic mil
TTITLE11=Zhoupni se v sedle
TTITLE12=Jen se priznej, ze ti schazim
TTITLE13=Dobry den
TTITLE14=Pulmesic
TTITLE15=The Door Is Always Open
TTITLE16=Ma co chtela
TTITLE17=Den jde spat
TTITLE18=Za klobouk si vrasky dej
TTITLE19=Par noci, par jisker
TTITLE20=Vsichni svorne
TTITLE21=Jed dal
TTITLE22=Odval ten kamen
TTITLE23=Do sedla jo
EXTD=
EXTT0=
EXTT1=
EXTT2=
EXTT3=
EXTT4=
EXTT5=
EXTT6=
EXTT7=
EXTT8=
EXTT9=
EXTT10=
EXTT11=
EXTT12=
EXTT13=
EXTT14=
EXTT15=
EXTT16=
EXTT17=
EXTT18=
EXTT19=
EXTT20=
EXTT21=
EXTT22=
EXTT23=
PLAYORDER=
